<svg id="eUIuhDHK75G1" xmlns="http://www.w3.org/2000/svg" xmlns:xlink="http://www.w3.org/1999/xlink" viewBox="0 0 964.55 255.39" shape-rendering="geometricPrecision" text-rendering="geometricPrecision"><g transform="translate(-57.730024-441.040001)"><rect width="40.16" height="40.16" rx="0" ry="0" transform="translate(900.49 567.55)" fill="#fff"/><path d="M766.78,622.42c-8.88-10.63-19.07-19.98-29.13-29.22-27.99-25.7-54.42-49.97-54.42-102.02h-27v202.68c0,0,27,0,27,0v-118.52c10.95,14.6,23.9,26.48,36.16,37.74c25.12,23.06,46.81,42.98,47.4,80.98l27-.21v-202.68h-27v131.24Z" fill="#fff"/><path d="M227.83,557.21c-15.72-5.24-34.51-4.85-56.17,1.13l79.28-70.35-8.96-23.6h-133.9v-23.35h-27v23.35h-23.35v27h23.35v111.23L67.2,614.94l13.88,16.51v49.12l13.5,13.5h73.7c69.12,0,99.18-33.5,104.27-64.85c5.09-31.39-13.71-61.67-44.72-72.01ZM108.08,491.39h98.35l-98.35,87.27v-87.27ZM245.9,624.89c-5.05,31.1-43.4,42.18-77.62,42.18h-60.2v-48.27c32-20.92,80.88-46.08,111.21-35.98c18.38,6.13,29.57,23.82,26.61,42.07Z" fill="#fff"/><path d="M931.83,476.58l-22.41-.08c-36.23,53.55-90,108.08-90.54,108.62l.05,19.04l92.13,92.13h19.09l92.13-92.13v-19.09c-.54-.54-54.79-55.02-90.44-108.5ZM920.6,667.66l-73.21-73.21c15.24-16.1,46.34-50.11,73.15-86.84c26.59,36.75,57.88,70.78,73.24,86.88l-73.17,73.17Z" fill="#fff"/><path d="M367.62,499.76c-9.56,4.59-21.35,12.42-32.44,25.64l-5.75-31.51-26.56,4.85l11.38,62.38c-12.97,32.34-16.85,73.01-11.52,120.95l13.42,12.01h33.62l13.28-15.92-20.77-113.81c11.25-23.84,26.17-35.02,37.03-40.24c16.52-7.94,31.83-5.83,37.84.19l19.09-19.09c-15.52-15.52-43.1-17.71-68.63-5.44Zm-39.2,167.31c-.91-11.62-1.21-22.7-.89-33.19l6.06,33.19h-5.16Z" fill="#fff"/><path d="M592.07,549.79c-7.29,30.67-21.97,74.3-51.17,115.73-29.2-41.43-43.88-85.06-51.17-115.73-8.87-37.35-9.04-64.23-9.04-64.5l-13.5.02h-13.5c0,1.19.11,29.67,9.57,69.89c8.72,37.08,27.45,91.68,67.09,141.23h21.08c39.64-49.56,58.37-104.15,67.09-141.23c9.46-40.22,9.57-68.69,9.57-69.89l-27-.02c0,.27-.16,27.14-9.04,64.5Z" fill="#fff"/></g></svg>
