<svg id="eMhjZUEWG1x1" xmlns="http://www.w3.org/2000/svg" xmlns:xlink="http://www.w3.org/1999/xlink" viewBox="0 0 252.39 297.6" shape-rendering="geometricPrecision" text-rendering="geometricPrecision"><path d="M558.3,717.53h-36.61C467.94,610.03,414.34,555.81,413.8,555.27l14.47-34.93c0,0-.23-.01-.68.01.48-.03,46.03-4.3,94.1-100.42h36.61c48.05,96.09,92.98,100.41,93.42,100.41l14.47,34.93c-.52.52-54.42,55.34-107.89,162.26ZM463.89,550.32c18.27,22.35,46.34,60.31,76.11,114.12c29.77-53.81,57.83-91.77,76.11-114.12-20.74-11.17-48.13-33.69-76.11-79.06-27.97,45.37-55.37,67.89-76.11,79.06Z" transform="translate(-413.8-419.93)" fill="#fff"/></svg>
